<mxfile host="app.diagrams.net" modified="2023-09-04T04:31:25.761Z" agent="Mozilla/5.0 (Windows NT 10.0; Win64; x64) AppleWebKit/537.36 (KHTML, like Gecko) Chrome/116.0.0.0 Safari/537.36 Edg/116.0.1938.69" etag="sg5BTyqpvVnjrTyDpeZE" version="21.7.2" type="device">
  <diagram name="Page-1" id="ksYWo3bjM4lc7T1wttuu">
    <mxGraphModel dx="3328" dy="1892" grid="1" gridSize="10" guides="1" tooltips="1" connect="1" arrows="1" fold="1" page="1" pageScale="1" pageWidth="850" pageHeight="1100" math="0" shadow="0">
      <root>
        <mxCell id="0" />
        <mxCell id="1" parent="0" />
        <mxCell id="ur5Ze4bCJLSnZOu3iCQt-3" style="edgeStyle=orthogonalEdgeStyle;rounded=0;orthogonalLoop=1;jettySize=auto;html=1;exitX=0.997;exitY=0.88;exitDx=0;exitDy=0;endSize=22;strokeWidth=3;startSize=22;exitPerimeter=0;entryX=0.092;entryY=0.798;entryDx=0;entryDy=0;entryPerimeter=0;" edge="1" parent="1" source="ur5Ze4bCJLSnZOu3iCQt-1" target="ur5Ze4bCJLSnZOu3iCQt-2">
          <mxGeometry relative="1" as="geometry">
            <mxPoint x="1225" y="648.75" as="targetPoint" />
          </mxGeometry>
        </mxCell>
        <mxCell id="ur5Ze4bCJLSnZOu3iCQt-5" value="&lt;font style=&quot;font-size: 32px;&quot; face=&quot;Times New Roman&quot;&gt;Selects what features&lt;br&gt;to run&lt;/font&gt;" style="edgeLabel;html=1;align=center;verticalAlign=middle;resizable=0;points=[];" vertex="1" connectable="0" parent="ur5Ze4bCJLSnZOu3iCQt-3">
          <mxGeometry x="-0.1767" y="3" relative="1" as="geometry">
            <mxPoint x="53" as="offset" />
          </mxGeometry>
        </mxCell>
        <mxCell id="ur5Ze4bCJLSnZOu3iCQt-1" value="&lt;font face=&quot;Times New Roman&quot; style=&quot;font-size: 60px;&quot;&gt;User&lt;/font&gt;" style="rounded=1;whiteSpace=wrap;html=1;absoluteArcSize=1;arcSize=14;strokeWidth=3;" vertex="1" parent="1">
          <mxGeometry x="425" y="418.75" width="337" height="263.5" as="geometry" />
        </mxCell>
        <mxCell id="ur5Ze4bCJLSnZOu3iCQt-2" value="0&lt;br&gt;PigCare" style="ellipse;whiteSpace=wrap;html=1;aspect=fixed;fontSize=61;fontFamily=Times New Roman;strokeWidth=3;" vertex="1" parent="1">
          <mxGeometry x="1184" y="381" width="339" height="339" as="geometry" />
        </mxCell>
        <mxCell id="ur5Ze4bCJLSnZOu3iCQt-4" style="edgeStyle=orthogonalEdgeStyle;rounded=0;orthogonalLoop=1;jettySize=auto;html=1;exitX=0.103;exitY=0.198;exitDx=0;exitDy=0;endSize=22;strokeWidth=3;startSize=22;exitPerimeter=0;entryX=0.998;entryY=0.115;entryDx=0;entryDy=0;entryPerimeter=0;" edge="1" parent="1" source="ur5Ze4bCJLSnZOu3iCQt-2" target="ur5Ze4bCJLSnZOu3iCQt-1">
          <mxGeometry relative="1" as="geometry">
            <mxPoint x="1215" y="458.75" as="sourcePoint" />
            <mxPoint x="772" y="458.75" as="targetPoint" />
          </mxGeometry>
        </mxCell>
        <mxCell id="ur5Ze4bCJLSnZOu3iCQt-7" value="&lt;font style=&quot;font-size: 32px;&quot; face=&quot;Times New Roman&quot;&gt;Decision support&amp;nbsp;&lt;br&gt;Information Output&lt;/font&gt;" style="edgeLabel;html=1;align=center;verticalAlign=middle;resizable=0;points=[];" vertex="1" connectable="0" parent="ur5Ze4bCJLSnZOu3iCQt-4">
          <mxGeometry x="0.474" y="1" relative="1" as="geometry">
            <mxPoint x="72" as="offset" />
          </mxGeometry>
        </mxCell>
        <mxCell id="ur5Ze4bCJLSnZOu3iCQt-12" style="edgeStyle=orthogonalEdgeStyle;shape=connector;rounded=0;orthogonalLoop=1;jettySize=auto;html=1;exitX=0;exitY=0.5;exitDx=0;exitDy=0;labelBackgroundColor=default;strokeColor=default;strokeWidth=3;fontFamily=Helvetica;fontSize=11;fontColor=default;endArrow=classic;startSize=22;endSize=22;" edge="1" parent="1" source="ur5Ze4bCJLSnZOu3iCQt-10" target="ur5Ze4bCJLSnZOu3iCQt-2">
          <mxGeometry relative="1" as="geometry" />
        </mxCell>
        <mxCell id="ur5Ze4bCJLSnZOu3iCQt-13" value="&lt;font style=&quot;font-size: 32px;&quot;&gt;Information inside the&amp;nbsp;&lt;br&gt;database&lt;/font&gt;" style="edgeLabel;html=1;align=center;verticalAlign=middle;resizable=0;points=[];fontSize=11;fontFamily=Helvetica;fontColor=default;" vertex="1" connectable="0" parent="ur5Ze4bCJLSnZOu3iCQt-12">
          <mxGeometry x="0.0435" y="-4" relative="1" as="geometry">
            <mxPoint as="offset" />
          </mxGeometry>
        </mxCell>
        <mxCell id="ur5Ze4bCJLSnZOu3iCQt-10" value="&lt;font style=&quot;font-size: 32px;&quot; face=&quot;Times New Roman&quot;&gt;Database&lt;/font&gt;" style="shape=dataStorage;whiteSpace=wrap;html=1;fixedSize=1;strokeWidth=3;" vertex="1" parent="1">
          <mxGeometry x="2015" y="488.87" width="380" height="123.25" as="geometry" />
        </mxCell>
      </root>
    </mxGraphModel>
  </diagram>
</mxfile>
